Coordinates
version=1
nRows=9
nColumns=24
inDegrees=yes

Units are S.I. units (second, meters, Newtons, ...)
Angles are in degrees.

endheader
time	pelvis_tilt	pelvis_list	pelvis_rotation	pelvis_tx	pelvis_ty	pelvis_tz	hip_flexion_r	hip_adduction_r	hip_rotation_r	knee_angle_r	ankle_angle_r	subtalar_angle_r	mtp_angle_r	hip_flexion_l	hip_adduction_l	hip_rotation_l	knee_angle_l	ankle_angle_l	subtalar_angle_l	mtp_angle_l	lumbar_extension	lumbar_bending	lumbar_rotation
      4.68000000	     -9.18566244	      4.68838912	      3.19519460	     -1.38423941	     -0.00870728	     -0.33788845	     25.78066051	    -11.15489823	     -9.96816163	    -64.88135083	    -16.18939077	      4.13078795	     38.76605780	     14.00155685	     10.55257263	     14.97418932	    -17.27294475	      2.87238228	     -8.40933476	      3.91138431	      7.70476030	     -7.38513373	      0.99384602
      4.68500000	     -9.07185099	      4.47922637	      3.35550243	     -1.37942562	     -0.00825711	     -0.33829008	     26.30970762	    -10.97732271	    -10.17364841	    -64.55387119	    -15.55729415	      4.26244133	     39.11199707	     13.42227036	     10.35379168	     15.25954021	    -17.05998402	      3.09430327	     -8.42365462	      3.81873314	      7.51544201	     -7.19786901	      0.58937791
      4.69000000	     -8.95871242	      4.27316178	      3.50395603	     -1.37463719	     -0.00784506	     -0.33868822	     26.82958849	    -10.78878855	    -10.35164797	    -64.16480005	    -14.93673996	      4.37427021	     39.38231525	     12.84384570	     10.14546358	     15.51065920	    -16.83260230	      3.31325330	     -8.41056254	      3.79394520	      7.32740652	     -7.00548516	      0.19988460
      4.69500000	     -8.85047710	      4.07195206	      3.63730110	     -1.36986988	     -0.00747755	     -0.33905449	     27.34692042	    -10.58948170	    -10.50372719	    -63.71837854	    -14.33857967	      4.46313055	     39.57422417	     12.27160536	      9.92861745	     15.72540697	    -16.59256602	      3.52576856	     -8.37607525	      3.83564026	      7.14548904	     -6.81510758	     -0.17345769
      4.70000000	     -8.71357434	      3.88879733	      3.78052910	     -1.36514109	     -0.00714029	     -0.33943089	     27.81421665	    -10.41123919	    -10.66171147	    -63.21519160	    -13.72157052	      4.53640194	     39.70414731	     11.67289568	      9.72515909	     15.92727448	    -16.35187277	      3.73397047	     -8.32415295	      3.94262599	      6.92452657	     -6.64029295	     -0.54037619
      4.70500000	     -8.63058194	      3.69576720	      3.88044048	     -1.36040013	     -0.00689713	     -0.33973443	     28.34082659	    -10.18781302	    -10.75614104	    -62.65472329	    -13.18029100	      4.56773767	     39.77030329	     11.13260758	      9.49738599	     16.09060358	    -16.10112524	      3.95068018	     -8.28840794	      4.06860640	      6.77550902	     -6.45260133	     -0.84892237
      4.71000000	     -8.45271148	      3.53677372	      4.04440533	     -1.35573000	     -0.00659708	     -0.34009627	     28.72318738	    -10.02520370	    -10.89968685	    -62.03276185	    -12.56883523	      4.63328102	     39.73922918	     10.50276089	      9.30616008	     16.25589374	    -15.86477883	      4.12283072	     -8.18591954	      4.30992801	      6.49462764	     -6.30195528	     -1.26858177
      4.71500000	     -8.31892295	      3.36773815	      4.17302077	     -1.35102384	     -0.00636781	     -0.34039569	     29.14321965	     -9.82240179	    -10.99058989	    -61.34729187	    -12.01684672	      4.67507702	     39.62482577	      9.91651786	      9.09339264	     16.40388409	    -15.61472497	      4.28034082	     -8.12211626	      4.56980106	      6.28018736	     -6.13870531	     -1.62570479
      4.72000000	     -8.24943565	      3.21630229	      4.26150756	     -1.34632896	     -0.00629885	     -0.34064760	     29.63813743	     -9.61607715	    -11.02291866	    -60.62043820	    -11.52427555	      4.66070516	     39.55260146	      9.40804596	      8.90089143	     16.54747026	    -15.38495437	      4.48707054	     -8.10702608	      4.75366200	      6.14320912	     -5.98210348	     -1.88931380
